<?xml version="1.0" encoding="UTF-8" standalone="no"?>
<svg
   width="23.207001"
   height="23.20878"
   version="1.1"
   id="svg3"
   xmlns="http://www.w3.org/2000/svg"
   xmlns:svg="http://www.w3.org/2000/svg">
  <defs
     id="defs3" />
  <path
     d="m 8.1679998,19.977362 -1.082,2.02 c -0.063,0.12 -0.028,0.28 0.101,0.328 a 11.38,11.38 0 0 0 4.3200002,0.883 c 6.399,0.054 11.645,-5.11 11.7,-11.508 v -0.098 C 23.207,5.2583621 18.047,0.05536014 11.703,3.6014032e-4 5.3039998,-0.04963986 0.05399983,5.1103621 0.00299983,11.508362 l -0.003000003096,0.098 c 0,3.031 1.179999973096,5.797 3.100999973096,7.871 0.09,0.102 0.246,0.121 0.348,0.027 l 1.554,-1.722 c 0.09,-0.102 0.07,-0.254 -0.015,-0.344 l 0.004,-0.004 a 8.77,8.77 0 0 1 -2.219,-5.828 v -0.074 c 0.043,-4.8709999 4.035,-8.7969999 8.9060002,-8.7579999 4.828,0.039 8.758,4 8.758,8.8279999 v 0.078 c -0.043,4.867 -4.039,8.797 -8.906,8.754 a 8.775,8.775 0 0 1 -3.0310002,-0.566 0.257,0.257 0 0 0 -0.332,0.109"
     id="path2"
     style="fill:#33b1ff;fill-opacity:1" />
</svg>
