<?xml version="1.0" encoding="UTF-8" standalone="no"?>
<svg
   width="14.544014"
   height="14.549492"
   version="1.1"
   id="svg3"
   xmlns="http://www.w3.org/2000/svg"
   xmlns:svg="http://www.w3.org/2000/svg">
  <defs
     id="defs3" />
  <path
     d="m 1.5959691,7.2435395 -1.428445,-0.154561 c -0.08455,-0.0085 -0.169346,0.04952 -0.16695699929,0.135753 A 7.1352288,7.1352288 0 0 0 0.5019191,9.9435185 c 1.471577,3.7326965 5.705801,5.5695065 9.438143,4.0987335 l 0.05708,-0.02264 C 13.68518,12.529551 15.497935,8.3077585 14.039844,4.6068085 12.565927,0.87506053 8.3331001,-0.96501947 4.6017001,0.50807853 l -0.05773,0.02105 C 2.7819241,1.2410335 1.4510911,2.5766945 0.6965851,4.1805875 c -0.03816,0.07625 -0.01255,0.17143 0.0659,0.208695 l 1.366071,0.498943 c 0.08042,0.02835 0.164113,-0.01887 0.19644,-0.08956 l 0.0024,0.0024 a 5.4987658,5.4987658 0 0 1 2.866914,-2.658909 l 0.04296,-0.01756 c 2.841813,-1.119093 6.0617909,0.279499 7.1832079,3.120377 1.11132,2.815871 -0.268312,6.0308995 -3.0750289,7.1648845 l -0.04542,0.01812 c -2.83937,1.118076 -6.06261,-0.281887 -7.18076,-3.1213785 a 5.5019009,5.5019009 0 0 1 -0.382827,-1.895014 0.16113828,0.16113828 0 0 0 -0.141342,-0.167407"
     id="path9"
     style="fill:#be95ff;fill-opacity:1;stroke-width:1" />
</svg>
