<?xml version="1.0" encoding="UTF-8" standalone="no"?>
<svg
   width="31.820118"
   height="31.816122"
   version="1.1"
   id="svg3"
   xmlns="http://www.w3.org/2000/svg"
   xmlns:svg="http://www.w3.org/2000/svg">
  <defs
     id="defs3" />
  <path
     d="m 7.8870602,2.1790596 c -4.727,2.77 -7.90299999,7.9100024 -7.886999986438,13.7740024 0.02699999644,8.77 7.179999986438,15.887 15.952999786438,15.863 8.773,-0.023 15.89,-7.18 15.867,-15.953 C 31.79706,7.0930616 24.63706,-0.02393927 15.86706,6.0733728e-5 14.82012,0.00496073 13.776165,0.11217573 12.75006,0.32006073 c -0.129,0.031 -0.2,0.164 -0.168,0.29 l 0.55,2.21399887 c 0.02885,0.131187 0.159021,0.213777 0.29,0.184 v 0.003 c 0.808307,-0.15668 1.629649,-0.23637 2.453,-0.238 7.242,-0.02 13.152,5.856002 13.172,13.0980024 0.02,7.246 -5.86,13.156 -13.102,13.172 -7.2419998,0.023 -13.1519998,-5.856 -13.1719998,-13.098 -0.011,-4.797 2.563,-9.0080004 6.407,-11.3080024 0.117132,-0.06399 0.164753,-0.207728 0.109,-0.329 l -1.07,-2.027 c -0.06367,-0.119657 -0.212131,-0.165269 -0.332,-0.102"
     id="path1"
     style="fill:#ff7eb6;fill-opacity:1" />
</svg>
